<?xml version="1.0" encoding="utf-8"?>
<!-- Generator: Adobe Illustrator 16.0.4, SVG Export Plug-In . SVG Version: 6.00 Build 0)  -->
<!DOCTYPE svg PUBLIC "-//W3C//DTD SVG 1.1//EN" "http://www.w3.org/Graphics/SVG/1.1/DTD/svg11.dtd">
<svg version="1.1" id="Layer_1" xmlns="http://www.w3.org/2000/svg" xmlns:xlink="http://www.w3.org/1999/xlink" x="0px" y="0px"
	 width="20px" height="20px" viewBox="0 0 20 20" enable-background="new 0 0 20 20" xml:space="preserve">
<g>
	<path fill="#00E0B8" d="M16,0H4C1.791,0,0,1.79,0,4v12c0,2.208,1.791,4,4,4h12c2.209,0,4-1.792,4-4V4C20,1.79,18.209,0,16,0z
		 M15.707,14.293c0.391,0.391,0.391,1.023,0,1.414C15.512,15.902,15.256,16,15,16s-0.512-0.098-0.707-0.293L10,11.414l-4.293,4.293
		C5.512,15.902,5.256,16,5,16s-0.512-0.098-0.707-0.293c-0.391-0.391-0.391-1.023,0-1.414L8.586,10L4.293,5.707
		c-0.391-0.39-0.391-1.023,0-1.414c0.39-0.391,1.023-0.391,1.414,0L10,8.586l4.293-4.293c0.391-0.391,1.023-0.391,1.414,0
		s0.391,1.024,0,1.414L11.414,10L15.707,14.293z"/>
</g>
</svg>
