<svg id="01bb36c1-4516-4370-b907-89628f5deb7b" data-name="Layer 1" xmlns="http://www.w3.org/2000/svg" width="48" height="48" viewBox="0 0 48 48">
  <title>appsMenuIconMarketingInsight</title>
  <g id="c82b1c39-2f30-4516-b302-97a9ea1dd446" data-name="happy">
    <circle cx="24" cy="24" r="24" transform="translate(-9.941 24) rotate(-45)" fill="#25373e"/>
    <g>
      <path d="M15.75,9a6.75,6.75,0,1,0,6.75,6.75A6.75,6.75,0,0,0,15.75,9Zm2.609,3.415a1.03,1.03,0,1,1-1.03,1.03A1.03,1.03,0,0,1,18.359,12.415Zm-5.217,0a1.03,1.03,0,1,1-1.03,1.03A1.03,1.03,0,0,1,13.141,12.415ZM20.2,16.232a4.45,4.45,0,0,1-8.9,0Zm-4.45,3.515" transform="translate(0 0)" fill="#fff"/>
      <path d="M32.25,9A6.75,6.75,0,1,0,39,15.75,6.75,6.75,0,0,0,32.25,9Zm2.609,3.415a1.03,1.03,0,1,1-1.03,1.03A1.03,1.03,0,0,1,34.859,12.415Zm-5.217,0a1.03,1.03,0,1,1-1.03,1.03A1.03,1.03,0,0,1,29.642,12.415ZM36.7,16.232a4.45,4.45,0,0,1-8.9,0Zm-4.45,3.515" transform="translate(0 0)" fill="#fff" opacity="0.4"/>
      <g opacity="0.4">
        <path d="M15.75,25.5a6.75,6.75,0,1,0,6.75,6.75A6.75,6.75,0,0,0,15.75,25.5Zm2.609,3.415a1.03,1.03,0,1,1-1.03,1.03A1.03,1.03,0,0,1,18.359,28.915Zm-5.217,0a1.03,1.03,0,1,1-1.03,1.03A1.03,1.03,0,0,1,13.141,28.915ZM20.2,32.732a4.45,4.45,0,0,1-8.9,0Zm-4.45,3.515" transform="translate(0 0)" fill="#fff"/>
      </g>
      <path d="M32.25,25.5A6.75,6.75,0,1,0,39,32.25,6.75,6.75,0,0,0,32.25,25.5Zm2.609,3.415a1.03,1.03,0,1,1-1.03,1.03A1.03,1.03,0,0,1,34.859,28.915Zm-5.217,0a1.03,1.03,0,1,1-1.03,1.03A1.03,1.03,0,0,1,29.642,28.915ZM36.7,32.732a4.45,4.45,0,0,1-8.9,0Zm-4.45,3.515" transform="translate(0 0)" fill="#fff" opacity="0.4"/>
    </g>
  </g>
</svg>
