<?xml version="1.0" encoding="utf-8"?>
<!-- Generator: Adobe Illustrator 16.0.4, SVG Export Plug-In . SVG Version: 6.00 Build 0)  -->
<!DOCTYPE svg PUBLIC "-//W3C//DTD SVG 1.1//EN" "http://www.w3.org/Graphics/SVG/1.1/DTD/svg11.dtd">
<svg version="1.1" id="Layer_1" xmlns="http://www.w3.org/2000/svg" xmlns:xlink="http://www.w3.org/1999/xlink" x="0px" y="0px"
	 width="48px" height="48px" viewBox="0 0 48 48" enable-background="new 0 0 48 48" xml:space="preserve">
<g>
	<g>
		<g>
			<g>
				<circle fill="#25373E" cx="24" cy="24" r="24"/>
				<g>
					<g opacity="0.3">
						<g>
							<path fill="#FFFFFF" d="M14.741,17.288c0.098,0.017,0.194,0.035,0.289,0.061C14.934,17.325,14.839,17.304,14.741,17.288z"/>
							<path fill="#FFFFFF" d="M16.624,24.65c-0.201,0.161-0.42,0.304-0.649,0.423C16.206,24.955,16.421,24.811,16.624,24.65z"/>
							<path fill="#FFFFFF" d="M17.829,23.128c-0.125,0.275-0.284,0.528-0.464,0.767C17.545,23.655,17.704,23.403,17.829,23.128z"/>
							<path fill="#FFFFFF" d="M12.306,25.185c-0.234-0.105-0.457-0.229-0.666-0.374C11.847,24.956,12.073,25.075,12.306,25.185z"/>
							<path fill="#FFFFFF" d="M15.318,17.437c0.261,0.087,0.515,0.195,0.751,0.328C15.833,17.631,15.583,17.522,15.318,17.437z"/>
							<path fill="#FFFFFF" d="M17.282,23.996c-0.16,0.201-0.339,0.386-0.534,0.554C16.943,24.381,17.12,24.197,17.282,23.996z"/>
							<path fill="#FFFFFF" d="M15.981,18.767c0-0.333,0.035-0.668,0.09-1c0-0.001,0-0.002,0-0.002
								c-0.238-0.133-0.492-0.24-0.753-0.328c-0.095-0.032-0.19-0.064-0.288-0.088c-0.095-0.025-0.191-0.043-0.289-0.061
								c-0.228-0.042-0.461-0.07-0.703-0.07c-1.889,0-3.484,1.256-3.998,2.979c-0.114,0.379-0.176,0.781-0.176,1.196
								c0,1.414,0.703,2.661,1.775,3.418c0.209,0.145,0.432,0.269,0.666,0.374c0.02,0.006,0.039,0.016,0.06,0.023
								c0.231,0.099,0.469,0.181,0.718,0.239h0.006c0.305,0.075,0.62,0.125,0.949,0.125c0.658,0,1.271-0.167,1.822-0.436
								c0.039-0.019,0.075-0.041,0.114-0.063c0.229-0.119,0.448-0.262,0.649-0.423c0.043-0.034,0.084-0.066,0.124-0.101
								c0.195-0.168,0.374-0.353,0.534-0.554c0.028-0.034,0.058-0.065,0.083-0.101c0.18-0.239,0.339-0.492,0.464-0.767v-0.001
								C16.662,21.987,15.981,20.419,15.981,18.767z"/>
						</g>
						<path fill="#FFFFFF" d="M15.142,26.466c-0.026-0.001-0.049-0.003-0.074-0.003h-2.054c-1.254,0-2.406,0.424-3.333,1.128
							c-1.315,1.008-2.17,2.589-2.17,4.372v1.391h1.92h3.685v-1.696C13.115,29.702,13.847,27.876,15.142,26.466z"/>
					</g>
					<g opacity="0.6">
						<path fill="#FFFFFF" d="M16.997,18.767c0,1.725,0.857,3.247,2.168,4.168c0.826,0.582,1.834,0.928,2.924,0.928
							c1.985,0,3.686-1.147,4.526-2.803c-1.603-1.367-2.552-3.371-2.552-5.493c0-0.474,0.064-0.944,0.158-1.41
							c-0.65-0.302-1.367-0.481-2.133-0.481c-2.305,0-4.25,1.531-4.877,3.633C17.073,17.77,16.997,18.261,16.997,18.767z"/>
						<path fill="#FFFFFF" d="M20.568,31.285c0-2.398,0.924-4.636,2.557-6.336h-2.286c-1.53,0-2.935,0.517-4.064,1.378
							c-1.605,1.227-2.645,3.151-2.645,5.33v1.696h2.34h4.099V31.285z"/>
					</g>
					<g>
						<path fill="#FFFFFF" d="M25.081,15.566c0,2.099,1.044,3.955,2.641,5.08c1.011,0.71,2.24,1.132,3.568,1.132
							c3.432,0,6.213-2.782,6.213-6.212c0-3.433-2.781-6.212-6.213-6.212c-2.811,0-5.183,1.869-5.948,4.433
							C25.173,14.349,25.081,14.947,25.081,15.566z"/>
						<path fill="#FFFFFF" d="M32.818,23.103h-3.054c-1.863,0-3.579,0.63-4.956,1.681c-1.958,1.495-3.226,3.848-3.226,6.501v2.068
							h0.392h2.464h5.613h1.1H41v-2.068C41,26.766,37.337,23.103,32.818,23.103z"/>
					</g>
				</g>
			</g>
		</g>
	</g>
</g>
</svg>
